Coordinates
version=1
nRows=38
nColumns=12
inDegrees=yes

Units are S.I. units (second, meters, Newtons, ...)
Angles are in degrees

endheader
time	SC_y	SC_z	SC_x	AC_y	AC_z	AC_x	GH_y	GH_z	GH_yy	EL_x	PS_y
       0.0              -49.79          13.95          1.432          48.23         -16.25           4.34         -172.2          69.47         -168.6          30.66          89.19
   0.04317              -49.79          13.95          1.436          48.23         -16.24          4.338         -172.2          69.46         -168.5          30.67           89.2
   0.08635              -49.78          13.95          1.439          48.23         -16.24          4.336         -172.1          69.46         -168.5          30.67           89.2
    0.1295              -49.78          13.95          1.443          48.23         -16.23          4.334         -172.1          69.45         -168.5          30.68          89.21
    0.1727              -49.77          13.95          1.448          48.22         -16.23          4.332         -172.0          69.45         -168.5          30.68          89.21
    0.2159              -49.76          13.96          1.452          48.22         -16.23          4.329         -172.0          69.44         -168.4          30.69          89.22
     0.259              -49.76          13.96          1.457          48.22         -16.22          4.327         -171.9          69.43         -168.4           30.7          89.23
    0.3022              -49.75          13.96          1.462          48.22         -16.22          4.324         -171.8          69.42         -168.4          30.71          89.24
    0.3454              -49.74          13.96          1.467          48.22         -16.21          4.321         -171.8          69.42         -168.3          30.71          89.25
    0.3886              -49.73          13.96          1.473          48.22          -16.2          4.318         -171.7          69.41         -168.3          30.72          89.25
    0.4317              -49.72          13.96          1.479          48.22          -16.2          4.315         -171.6           69.4         -168.2          30.73          89.27
    0.4749              -49.71          13.96          1.486          48.21         -16.19          4.311         -171.5          69.39         -168.2          30.74          89.28
    0.5181               -49.7          13.96          1.493          48.21         -16.18          4.308         -171.5          69.38         -168.2          30.75          89.29
    0.5613              -49.68          13.96          1.501          48.21         -16.18          4.303         -171.4          69.37         -168.1          30.76           89.3
    0.6044              -49.67          13.97           1.51          48.21         -16.17          4.299         -171.2          69.35         -168.0          30.78          89.31
    0.6476              -49.66          13.97          1.519           48.2         -16.16          4.294         -171.1          69.34         -168.0          30.79          89.33
    0.6908              -49.64          13.97          1.529           48.2         -16.15          4.289         -171.0          69.32         -167.9          30.81          89.34
     0.734              -49.62          13.97           1.54           48.2         -16.14          4.283         -170.9          69.31         -167.8          30.82          89.36
    0.7771               -49.6          13.97          1.552          48.19         -16.12          4.277         -170.7          69.29         -167.8          30.84          89.38
    0.8203              -49.58          13.97          1.565          48.19         -16.11           4.27         -170.6          69.27         -167.7          30.86           89.4
    0.8635              -49.56          13.98          1.579          48.19          -16.1          4.262         -170.4          69.25         -167.6          30.88          89.42
    0.9067              -49.54          13.98          1.595          48.18         -16.08          4.254         -170.2          69.23         -167.5          30.91          89.45
    0.9498              -49.51          13.98          1.612          48.18         -16.06          4.245         -170.0           69.2         -167.4          30.93          89.48
     0.993              -49.48          13.99          1.632          48.17         -16.04          4.234         -169.7          69.17         -167.2          30.96          89.51
     1.036              -49.44          13.99          1.653          48.17         -16.02          4.223         -169.5          69.14         -167.1          30.99          89.54
     1.079               -49.4          13.99          1.677          48.16          -16.0           4.21         -169.2           69.1         -166.9          31.03          89.58
     1.123              -49.36           14.0          1.704          48.15         -15.97          4.196         -168.8          69.06         -166.7          31.07          89.62
     1.166              -49.31           14.0          1.734          48.14         -15.94           4.18         -168.5          69.02         -166.5          31.11          89.67
     1.209              -49.26          14.01          1.768          48.13          -15.9          4.162         -168.0          68.97         -166.3          31.16          89.73
     1.252               -49.2          14.02          1.807          48.12         -15.86          4.142         -167.6          68.91         -166.0          31.22          89.79
     1.295              -49.13          14.03          1.851          48.11         -15.82          4.119         -167.0          68.84         -165.8          31.29          89.86
     1.338              -49.05          14.03          1.902           48.1         -15.77          4.092         -166.4          68.77         -165.4          31.36          89.94
     1.382              -48.95          14.04           1.96          48.08         -15.71          4.061         -165.6          68.68         -165.0          31.45          90.04
     1.425              -48.85          14.06          2.029          48.06         -15.64          4.025         -164.8          68.58         -164.6          31.55          90.14
     1.468              -48.72          14.07          2.108          48.04         -15.56          3.983         -163.8          68.46         -164.0          31.67          90.27
     1.511              -48.57          14.09          2.202          48.01         -15.46          3.933         -162.6          68.32         -163.4          31.81          90.42
     1.554              -48.39          14.11          2.314          47.98         -15.35          3.874         -161.2          68.15         -162.6          31.98           90.6
     1.597              -48.18          14.13          2.447          47.94         -15.21          3.804         -159.6          67.95         -161.7          32.18          90.82
